<svg version="1.1" xmlns="http://www.w3.org/2000/svg" xmlns:xlink="http://www.w3.org/1999/xlink" width="1560" height="804"><defs/><g><path fill="none" stroke="#02063B" paint-order="fill stroke markers" d=" M 20 443.2638346048649 L 21 445.2859077023603 L 22 447.30198973986353 L 23 449.3118016780964 L 24 451.3150653456047 L 25 453.3115034772587 L 26 455.3008397526288 L 27 457.28279883422965 L 28 459.2571064056293 L 29 461.223489209416 L 30 463.1816750850189 L 31 465.13139300637727 L 32 467.0723731194518 L 33 469.0043467795746 L 34 470.92704658863113 L 35 472.84020643207026 L 36 474.7435615157359 L 37 476.6368484025167 L 38 478.51980504880703 L 39 480.3921708407761 L 40 482.2536866304382 L 41 484.1040947715208 L 42 485.9431391551245 L 43 487.77056524517013 L 44 489.5861201136282 L 45 491.38955247552605 L 46 493.18061272372717 L 47 494.9590529634786 L 48 496.72462704672114 L 49 498.4770906061581 L 50 500.2162010890771 L 51 501.94171779092125 L 52 503.653401888604 L 53 505.35101647356413 L 54 507.0343265845553 L 55 508.70309924016624 L 56 510.35710347106726 L 57 511.9961103519775 L 58 513.6198930333501 L 59 515.2282267727693 L 60 516.8208889660568 L 61 518.3976591780814 L 62 519.9583191732685 L 63 521.5026529458057 L 64 523.0304467495394 L 65 524.5414891275585 L 66 526.0355709414617 L 67 527.5124854003035 L 68 528.9720280892155 L 69 530.4139969976989 L 70 531.8381925475836 L 71 533.2444176206521 L 72 534.6324775859212 L 73 536.0021803265804 L 74 537.3533362665822 L 75 538.6857583968808 L 76 539.9992623013156 L 77 541.293666182135 L 78 542.5687908851587 L 79 543.8244599245743 L 80 545.0604995073636 L 81 546.2767385573568 L 82 547.4730087389108 L 83 548.6491444802077 L 84 549.8049829961715 L 85 550.9403643109977 L 86 552.0551312802963 L 87 553.1491296128409 L 88 554.2222078919234 L 89 555.2742175963117 L 90 556.3050131208058 L 91 557.3144517963906 L 92 558.3023939099816 L 93 559.2687027237632 L 94 560.2132444941137 L 95 561.1358884901158 L 96 562.0365070116512 L 97 562.9149754070752 L 98 563.771172090469 L 99 564.6049785584682 L 100 565.4162794066644 L 101 566.2049623455778 L 102 566.970918216199 L 103 567.7140410050977 L 104 568.4342278590948 L 105 569.1313790994986 L 106 569.8053982359008 L 107 570.4561919795318 L 108 571.0836702561717 L 109 571.6877462186178 L 110 572.2683362587047 L 111 572.8253600188764 L 112 573.3587404033077 L 113 573.8684035885755 L 114 574.354279033876 L 115 574.8162994907884 L 116 575.2544010125821 L 117 575.6685229630676 L 118 576.0586080249892 L 119 576.4246022079574 L 120 576.7664548559223 L 121 577.0841186541841 L 122 577.3775496359423 L 123 577.6467071883806 L 124 577.8915540582881 L 125 578.1120563572158 L 126 578.3081835661661 L 127 578.4799085398179 L 128 578.6272075102828 L 129 578.7500600903952 L 130 578.8484492765338 L 131 578.9223614509754 L 132 578.9717863837791 L 133 578.9967172342026 L 134 578.9971505516493 L 135 578.9730862761448 L 136 578.9245277383463 L 137 578.8514816590815 L 138 578.7539581484174 L 139 578.6319707042622 L 140 578.4855362104965 L 141 578.3146749346365 L 142 578.1194105250289 L 143 577.899770007578 L 144 577.6557837820046 L 145 577.3874856176391 L 146 577.0949126487471 L 147 576.7781053693903 L 148 576.4371076278212 L 149 576.0719666204147 L 150 575.6827328851358 L 151 575.2694602945442 L 152 574.8322060483388 L 153 574.3710306654406 L 154 573.885997975616 L 155 573.3771751106428 L 156 572.8446324950191 L 157 572.2884438362152 L 158 571.7086861144721 L 159 571.105439572148 L 160 570.4787877026107 L 161 569.8288172386826 L 162 569.1556181406362 L 163 568.4592835837423 L 164 567.7399099453748 L 165 566.9975967916708 L 166 566.2324468637505 L 167 565.4445660634963 L 168 564.6340634388964 L 169 563.8010511689508 L 170 562.9456445481457 L 171 562.0679619704955 L 172 561.1681249131566 L 173 560.2462579196139 L 174 559.3024885824433 L 175 558.3369475256519 L 176 557.349768386599 L 177 556.3410877974994 L 178 555.3110453665132 L 179 554.2597836584223 L 180 553.1874481748991 L 181 552.0941873343678 L 182 550.9801524514626 L 183 549.8454977160842 L 184 548.6903801720593 L 185 547.514959695405 L 186 546.3193989721996 L 187 545.1038634760674 L 188 543.8685214452751 L 189 542.6135438594464 L 190 541.3391044158977 L 191 540.0453795055971 L 192 538.7325481887506 L 193 537.4007921700191 L 194 536.0502957733692 L 195 534.6812459165612 L 196 533.2938320852793 L 197 531.8882463069045 L 198 530.4646831239374 L 199 529.0233395670718 L 200 527.564415127925 L 201 526.0881117314256 L 202 524.594633707867 L 203 523.0841877646262 L 204 521.5569829575537 L 205 520.0132306620396 L 206 518.4531445437574 L 207 516.8769405290908 L 208 515.2848367752488 L 209 513.6770536400711 L 210 512.0538136515287 L 211 510.4153414769248 L 212 508.7618638917995 L 213 507.0936097485423 L 214 505.4108099447173 L 215 503.7136973911058 L 216 502.0025069794698 L 217 500.2774755500408 L 218 498.53884185874045 L 219 496.7868465441346 L 220 495.0217320941274 L 221 493.24374281239915 L 222 491.45312478459346 L 223 489.65012584425705 L 224 487.8349955385379 L 225 486.0079850936464 L 226 484.16934738008393 L 227 482.3193368776438 L 228 480.4582096401896 L 229 478.58622326021555 L 230 476.70363683319425 L 231 474.8107109217157 L 232 472.90770751942404 L 233 470.99489001475564 L 234 469.07252315448454 L 235 467.14087300707956 L 236 465.2002069258789 L 237 463.2507935120863 L 238 461.2929025775952 L 239 459.3268051076446 L 240 457.35277322331297 L 241 455.37108014385535 L 242 453.3820001488873 L 243 451.38580854042294 L 244 449.38278160477165 L 245 447.37319657429776 L 246 445.35733158905003 L 247 443.33546565826504 L 248 441.30787862175043 L 249 439.2748511111534 L 250 437.23666451111905 L 251 435.1936009203454 L 252 433.14594311253825 L 253 431.09397449727425 L 254 429.0379790807745 L 255 426.97824142659647 L 256 424.9150466162485 L 257 422.8486802097324 L 258 420.77942820602016 L 259 418.7075770034699 L 260 416.6334133601863 L 261 414.55722435433114 L 262 412.4792973443903 L 263 410.3999199294008 L 264 408.3193799091456 L 265 406.2379652443199 L 266 404.15596401667574 L 267 402.0736643891492 L 268 399.9913545659771 L 269 397.9093227528072 L 270 395.827857116809 L 271 393.7472457467892 L 272 391.6677766133183 L 273 389.5897375288738 L 274 387.51341610800455 L 275 385.43909972752346 L 276 383.36707548673223 L 277 381.29763016768516 L 278 379.2310501954965 L 279 377.16762159869717 L 280 375.1076299696467 L 281 373.05136042500516 L 282 370.9990975662711 L 283 368.9511254403911 L 284 366.90772750044533 L 285 364.86918656641603 L 286 362.8357847860432 L 287 360.8078035957734 L 288 358.7855236818074 L 289 356.76922494125085 L 290 354.7591864433751 L 291 352.7556863909917 L 292 350.7590020819476 L 293 348.769409870745 L 294 346.7871851302926 L 295 344.81260221379125 L 296 342.84593441676236 L 297 340.88745393922164 L 298 338.9374318480048 L 299 336.9961380392503 L 300 335.0638412010436 L 301 333.14080877622916 L 302 331.2273069253945 L 303 329.3236004900316 L 304 327.4299529558816 L 305 325.5466264164659 L 306 323.6738815368111 L 307 321.81197751737113 L 308 319.961172058152 L 309 318.1217213230448 L 310 316.29387990437044 L 311 314.47790078764257 L 312 312.67403531655276 L 313 310.8825331581827 L 314 309.10364226844865 L 315 307.3376088577828 L 316 305.58467735705597 L 317 303.84509038374654 L 318 302.11908870836106 L 319 300.40691122110957 L 320 298.70879489884175 L 321 297.0249747722477 L 322 295.3556838933282 L 323 293.70115330313877 L 324 292.0616119998117 L 325 290.4372869068616 L 326 288.8284028417775 L 327 287.23518248490666 L 328 285.6578463486338 L 329 284.0966127468612 L 330 282.55169776479227 L 331 281.02331522902386 L 332 279.5116766779516 L 333 278.0169913324911 L 334 276.5394660671207 L 335 275.0793053812485 L 336 273.6367113709083 L 337 272.21188370078835 L 338 270.8050195765959 L 339 269.41631371776316 L 340 268.0459583304967 L 341 266.69414308117445 L 342 265.3610550700951 L 343 264.04687880558185 L 344 262.7517961784454 L 345 261.47598643680874 L 346 260.2196261612985 L 347 258.98288924060455 L 348 257.7659468474129 L 349 256.5689674147141 L 350 255.39211661249115 L 351 254.2355573247894 L 352 253.09944962717273 L 353 251.9839507645676 L 354 250.88921512949938 L 355 249.81539424072363 L 356 248.7626367222546 L 357 247.7310882827949 L 358 246.72089169556824 L 359 245.73218677855886 L 360 244.76511037515954 L 361 243.81979633523176 L 362 242.89637549657994 L 363 241.99497566684252 L 364 241.11572160580263 L 365 240.25873500812048 L 366 239.42413448648986 L 367 238.6120355552216 L 368 237.82255061425545 L 369 237.05578893360314 L 370 236.3118566382248 L 371 235.5908566933405 L 372 234.89288889017908 L 373 234.21804983216666 L 374 233.56643292155567 L 375 232.93812834649768 L 376 232.33322306856059 L 377 231.75180081069266 L 378 231.1939420456346 L 379 230.65972398478166 L 380 230.14922056749705 L 381 229.66250245087824 L 382 229.19963699997754 L 383 228.76068827847828 L 384 228.34571703982803 L 385 227.95478071882988 L 386 227.58793342369313 L 387 227.24522592854424 L 388 226.92670566639947 L 389 226.63241672259977 L 390 226.36239982870907 L 391 226.1166923568768 L 392 225.89532831466528 L 393 225.6983383403429 L 394 225.5257496986435 L 395 225.37758627699287 L 396 225.25386858220244 L 397 225.15461373763108 L 398 225.07983548081512 L 399 225.02954416156692 L 400 225.00374674054234 L 401 225.0024467882776 L 402 225.0256444846948 L 403 225.0733366190771 L 404 225.1455165905132 L 405 225.2421744088109 L 406 225.36329669587968 L 407 225.50886668758258 L 408 225.6788642360562 L 409 225.8732658124995 L 410 226.0920445104302 L 411 226.33517004940896 L 412 226.60260877923028 L 413 226.8943236845799 L 414 227.2102743901581 L 415 227.5504171662678 L 416 227.91470493486707 L 417 228.30308727608502 L 418 228.71551043520034 L 419 229.15191733008126 L 420 229.61224755908606 L 421 230.0964374094231 L 422 230.60441986596905 L 423 231.1361246205444 L 424 231.69147808164433 L 425 232.2704033846245 L 426 232.87282040233947 L 427 233.4986457562329 L 428 234.1477928278777 L 429 234.8201717709647 L 430 235.5156895237377 L 431 236.23424982187416 L 432 236.97575321180858 L 433 237.74009706449777 L 434 238.52717558962524 L 435 239.33687985024326 L 436 240.16909777785065 L 437 241.02371418790355 L 438 241.90061079575798 L 439 242.7996662330411 L 440 243.72075606444943 L 441 244.66375280497155 L 442 245.62852593753288 L 443 246.61494193106006 L 444 247.6228642589626 L 445 248.65215341802906 L 446 249.70266694773528 L 447 250.77425944996176 L 448 251.8667826091179 L 449 252.98008521266968 L 450 254.11401317206864 L 451 255.26840954407865 L 452 256.44311455249806 L 453 257.6379656102737 L 454 258.8527973420039 L 455 260.08744160682784 L 456 261.34172752169707 L 457 262.6154814850273 L 458 263.9085272007253 L 459 265.2206857025903 L 460 266.55177537908344 L 461 267.9016119984644 L 462 269.2700087342903 L 463 270.6567761912735 L 464 272.0617224314954 L 465 273.4846530009719 L 466 274.9253709565669 L 467 276.38367689325094 L 468 277.85936897169995 L 469 279.35224294623106 L 470 280.862092193072 L 471 282.38870773895866 L 472 283.9318782900588 L 473 285.49139026121657 L 474 287.0670278055136 L 475 288.65857284414426 L 476 290.2658050965991 L 477 291.8885021111527 L 478 293.52643929565323 L 479 295.1793899486069 L 480 296.84712529055497 L 481 298.52941449573893 L 482 300.22602472404776 L 483 301.9367211532449 L 484 303.6612670114689 L 485 305.39942361000476 L 486 307.1509503763193 L 487 308.91560488735877 L 488 310.6931429031013 L 489 312.48331840036167 L 490 314.2858836068424 L 491 316.100589035427 L 492 317.927183518711 L 493 319.76541424376495 L 494 321.61502678712543 L 495 323.4757651500091 L 496 325.34737179374446 L 497 327.2295876754171 L 498 329.122152283723 L 499 331.0248036750247 L 500 332.9372785096067 L 501 334.8593120881226 L 502 336.79063838823186 L 503 338.73099010141925 L 504 340.6800986699915 L 505 342.63769432424783 L 506 344.60350611981806 L 507 346.5772619751628 L 508 348.55868870923143 L 509 350.54751207927245 L 510 352.5434568187901 L 511 354.54624667564354 L 512 356.5556044502817 L 513 358.5712520341094 L 514 360.5929104479801 L 515 362.6202998808077 L 516 364.6531397282947 L 517 366.6911486317699 L 518 368.7340445171298 L 519 370.7815446338799 L 520 372.8333655942692 L 521 374.8892234125131 L 522 376.9488335440984 L 523 379.01191092516694 L 524 381.07817001196986 L 525 383.1473248203889 L 526 385.21908896551844 L 527 387.29317570130314 L 528 389.36929796022565 L 529 391.4471683930385 L 530 393.52649940853524 L 531 395.6070032133549 L 532 397.6883918518147 L 533 399.7703772457649 L 534 401.85267123446084 L 535 403.93498561444625 L 536 406.0170321794425 L 537 408.09852276023844 L 538 410.1791692645749 L 539 412.25868371701847 L 540 414.3367782988193 L 541 416.4131653877472 L 542 418.48755759790066 L 543 420.5596678194822 L 544 422.62920925853734 L 545 424.6958954766484 L 546 426.75944043057905 L 547 428.81955851186535 L 548 430.8759645863453 L 549 432.9283740336236 L 550 434.97650278646495 L 551 437.020067370111 L 552 439.0587849415149 L 553 441.0923733284888 L 554 443.12055106875846 L 555 445.1430374489195 L 556 447.15955254328964 L 557 449.169817252653 L 558 451.1735533428887 L 559 453.1704834834806 L 560 455.1603312859017 L 561 457.1428213418679 L 562 459.1176792614568 L 563 461.08463171108474 L 564 463.0434064513384 L 565 464.9937323746537 L 566 466.93533954284004 L 567 468.8679592244408 L 568 470.791323931928 L 569 472.70516745872385 L 570 474.609224916046 L 571 476.5032327695698 L 572 478.3869288759031 L 573 480.26005251886875 L 574 482.1223444455895 L 575 483.9735469023702 L 576 485.8134036703728 L 577 487.6416601010786 L 578 489.4580631515337 L 579 491.26236141937096 L 580 493.0543051776069 L 581 494.8336464092049 L 582 496.6001388414023 L 583 498.3535379797969 L 584 500.0936011421858 L 585 501.8200874921549 L 586 503.5327580724119 L 587 505.2313758378597 L 588 506.91570568840496 L 589 508.58551450149787 L 590 510.24057116439747 L 591 511.8806466061592 L 592 513.5055138293402 L 593 515.114947941417 L 594 516.7087261859123 L 595 518.2866279732257 L 596 519.8484349111652 L 597 521.3939308351738 L 598 522.9229018382483 L 599 524.4351363005454 L 600 525.9304249186714 L 601 527.4085607346507 L 602 528.8693391645711 L 603 530.3125580268988 L 604 531.7380175704621 L 605 533.145520502098 L 606 534.5348720139591 L 607 535.905879810476 L 608 537.258354134973 L 609 538.5921077959312 L 610 539.9069561928967 L 611 541.2027173420314 L 612 542.4792119013001 L 613 543.736263195293 L 614 544.9736972396785 L 615 546.191342765284 L 616 547.3890312418008 L 617 548.5665969011095 L 618 549.7238767602234 L 619 550.8607106438473 L 620 551.9769412065453 L 621 553.0724139545199 L 622 554.1469772669943 L 623 555.2004824171977 L 624 556.2327835929501 L 625 557.2437379168443 L 626 558.2332054660203 L 627 559.2010492915316 L 628 560.1471354373004 L 629 561.071332958658 L 630 561.9735139404675 L 631 562.8535535148291 L 632 563.7113298783624 L 633 564.5467243090646 L 634 565.3596211827428 L 635 566.1499079890164 L 636 566.9174753468902 L 637 567.662217019893 L 638 568.3840299307814 L 639 569.0828141758066 L 640 569.7584730385414 L 641 570.410913003267 L 642 571.0400437679154 L 643 571.645778256569 L 644 572.2280326315107 L 645 572.7867263048295 L 646 573.321781949573 L 647 573.833125510451 L 648 574.3206862140846 L 649 574.7843965788015 L 650 575.2241924239768 L 651 575.6400128789152 L 652 576.0318003912765 L 653 576.3995007350408 L 654 576.7430630180139 L 655 577.0624396888713 L 656 577.3575865437393 L 657 577.6284627323133 L 658 577.8750307635116 L 659 578.0972565106649 L 660 578.2951092162391 L 661 578.4685614960922 L 662 578.6175893432655 L 663 578.7421721313051 L 664 578.8422926171174 L 665 578.9179369433556 L 666 578.9690946403374 L 667 578.9957586274945 L 668 578.9979252143523 L 669 578.9755941010404 L 670 578.9287683783348 L 671 578.8574545272297 L 672 578.7616624180404 L 673 578.6414053090374 L 674 578.4966998446113 L 675 578.327566052969 L 676 578.1340273433619 L 677 577.9161105028458 L 678 577.673845692573 L 679 577.4072664436185 L 680 577.1164096523386 L 681 576.8013155752643 L 682 576.4620278235295 L 683 576.0985933568352 L 684 575.7110624769493 L 685 575.2994888207453 L 686 574.8639293527781 L 687 574.4044443573998 L 688 573.9210974304161 L 689 573.413955470284 L 690 572.8830886688527 L 691 572.3285705016486 L 692 571.750477717706 L 693 571.1488903289438 L 694 570.5238915990924 L 695 569.8755680321684 L 696 569.2040093605026 L 697 568.5093085323199 L 698 567.7915616988751 L 699 567.0508682011447 L 700 566.2873305560773 L 701 565.5010544424051 L 702 564.6921486860164 L 703 563.8607252448943 L 704 563.0068991936203 L 705 562.1307887074474 L 706 561.232515045944 L 707 560.3122025362104 L 708 559.3699785556715 L 709 558.4059735144469 L 710 557.420320837301 L 711 556.4131569451758 L 712 555.3846212363106 L 713 554.3348560669467 L 714 553.2640067316256 L 715 552.1722214430787 L 716 551.0596513117137 L 717 549.9264503246999 L 718 548.7727753246556 L 719 547.5987859879399 L 720 546.4046448025521 L 721 545.1905170456428 L 722 543.9565707606379 L 723 542.7029767339807 L 724 541.4299084714938 L 725 540.1375421743646 L 726 538.826056714758 L 727 537.495633611059 L 728 536.1464570027499 L 729 534.7787136249237 L 730 533.3925927824388 L 731 531.9882863237181 L 732 530.5659886141956 L 733 529.1258965094154 L 734 527.6682093277848 L 735 526.1931288229883 L 736 524.7008591560627 L 737 523.1916068671403 L 738 521.6655808468619 L 739 520.1229923074654 L 740 518.5640547535528 L 741 516.9889839525388 L 742 515.3979979047881 L 743 513.7913168134421 L 744 512.1691630539415 L 745 510.5317611432487 L 746 508.8793377087716 L 747 507.21212145699826 L 748 505.53034314184185 L 749 503.83423553270256 L 750 502.12403338225124 L 751 500.39997339393767 L 752 498.66229418922956 L 753 496.9112362745852 L 754 495.14704200816624 L 755 493.3699555662937 L 756 491.58022290965187 L 757 489.7780917492462 L 758 487.9638115121181 L 759 486.13763330682286 L 760 484.29980988867425 L 761 482.4505956247616 L 762 480.5902464587438 L 763 478.71901987542486 L 764 476.8371748651162 L 765 474.9449718877909 L 766 473.04267283703416 L 767 471.1305410037953 L 768 469.2088410399469 L 769 467.2778389216549 L 770 465.33780191256585 L 771 463.3889985268157 L 772 461.43169849186586 L 773 459.466172711171 L 774 457.49269322668397 L 775 455.5115331812038 L 776 453.5229667805706 L 777 451.5272692557137 L 778 449.5247168245579 L 779 447.515586653793 L 780 445.5001568205121 L 781 443.4787062737238 L 782 441.45151479574383 L 783 439.41886296347144 L 784 437.38103210955535 L 785 435.33830428345584 L 786 433.2909622124068 L 787 431.2392892622843 L 788 429.18356939838804 L 789 427.124087146137 L 790 425.06112755169 L 791 422.9949761424935 L 792 420.92591888776246 L 793 418.8542421589004 L 794 416.78023268986357 L 795 414.7041775374752 L 796 412.62636404169467 L 797 410.5470797858481 L 798 408.4666125568245 L 799 406.3852503052443 L 800 404.3032811056052 L 801 402.22099311641045 L 802 400.13867454028593 L 803 398.056613584091 L 804 395.97509841902865 L 805 393.89441714076077 L 806 391.8148577295336 L 807 389.7367080103197 L 808 387.6602556129806 L 809 385.5857879324571 L 810 383.51359208899186 L 811 381.44395488839024 L 812 379.3771627823241 L 813 377.31350182868516 L 814 375.2532576519926 L 815 373.1967154038609 L 816 371.1441597235326 L 817 369.09587469848265 L 818 367.05214382509865 L 819 365.013249969443 L 820 362.97947532810235 L 821 360.95110138913 L 822 358.9284088930855 L 823 356.91167779417873 L 824 354.90118722152226 L 825 352.897215440498 L 826 350.9000398142431 L 827 348.90993676526165 L 828 346.92718173716537 L 829 344.95204915655034 L 830 342.98481239501575 L 831 341.0257437313256 L 832 339.0751143137244 L 833 337.13319412240867 L 834 335.20025193215946 L 835 333.2765552751423 L 836 331.36237040387886 L 837 329.45796225439585 L 838 327.5635944095561 L 839 325.679529062577 L 840 323.806026980741 L 841 321.943347469304 L 842 320.0917483356053 L 843 318.25148585338576 L 844 316.42281472731753 L 845 314.60598805775146 L 846 312.801257305686 L 847 311.0088722579637 L 848 309.2290809926984 L 849 307.4621298449405 L 850 305.70826337258154 L 851 303.9677243225065 L 852 302.2407535969956 L 853 300.52759022038197 L 854 298.828471305969 L 855 297.14363202321226 L 856 295.4733055651706 L 857 293.8177231162305 L 858 292.17711382010873 L 859 290.5517047481373 L 860 288.94172086783504 L 861 287.34738501177105 L 862 285.76891784672273 L 863 284.2065378431342 L 864 282.66046124487855 L 865 281.1309020393283 L 866 279.6180719277379 L 867 278.122180295943 L 868 276.64343418538004 L 869 275.1820382644303 L 870 273.7381948000924 L 871 272.3121036299873 L 872 270.90396213469904 L 873 269.513965210457 L 874 268.1423052421595 L 875 266.7891720767474 L 876 265.4547529969277 L 877 264.13923269525253 L 878 262.84279324855623 L 879 261.5656140927549 L 880 260.30787199801114 L 881 259.0697410442679 L 882 257.85139259715476 L 883 256.65299528426954 L 884 255.4747149718393 L 885 254.31671474176335 L 886 253.1791548690415 L 887 252.06219279959097 L 888 250.9659831284549 L 889 249.89067757840527 L 890 248.83642497894343 L 891 247.8033712457012 L 892 246.79165936024506 L 893 245.8014293502867 L 894 244.83281827030197 L 895 243.88596018256192 L 896 242.9609861385775 L 897 242.05802416096125 L 898 241.177199225708 L 899 240.31863324489746 L 900 239.4824450498207 L 901 238.66875037453323 L 902 237.87766183983635 L 903 237.10928893769005 L 904 236.36373801605825 L 905 235.6411122641898 L 906 234.94151169833611 L 907 234.26503314790855 L 908 233.6117702420764 L 909 232.98181339680792 L 910 232.37524980235636 L 911 231.7921634111921 L 912 231.232634926383 L 913 230.6967417904248 L 914 230.18455817452224 L 915 229.69615496832367 L 916 229.23159977010906 L 917 228.79095687743407 L 918 228.374287278231 L 919 227.98164864236736 L 920 227.61309531366427 L 921 227.26867830237467 L 922 226.94844527812336 L 923 226.652440563309 L 924 226.38070512696976 L 925 226.13327657911287 L 926 225.91018916550917 L 927 225.71147376295312 L 928 225.53715787498945 L 929 225.38726562810643 L 930 225.2618177683965 L 931 225.16083165868494 L 932 225.0843212761268 L 933 225.0322972102722 L 934 225.0047666616009 L 935 225.0017334405255 L 936 225.0231979668641 L 937 225.06915726978232 L 938 225.13960498820433 L 939 225.23453137169332 L 940 225.353923281801 L 941 225.49776419388618 L 942 225.66603419940174 L 943 225.85871000865004 L 944 226.0757649540067 L 945 226.31716899361123 L 946 226.58288871552514 L 947 226.8728873423565 L 948 227.18712473634997 L 949 227.52555740494233 L 950 227.88813850678196 L 951 228.27481785821217 L 952 228.6855419402168 L 953 229.1202539058278 L 954 229.57889358799295 L 955 230.0613975079037 L 956 230.5676988837808 L 957 231.09772764011763 L 958 231.65141041737863 L 959 232.22867058215337 L 960 232.8294282377627 L 961 233.45360023531717 L 962 234.10110018522533 L 963 234.77183846915057 L 964 235.46572225241502 L 965 236.18265549684847 L 966 236.9225389740806 L 967 237.68527027927496 L 968 238.47074384530242 L 969 239.2788509573524 L 970 240.10947976797976 L 971 240.96251531258514 L 972 241.83783952532696 L 973 242.73533125546234 L 974 243.65486628411543 L 975 244.5963173414699 L 976 245.55955412438405 L 977 246.54444331442568 L 978 247.55084859632413 L 979 248.5786306768373 L 980 249.62764730403083 L 981 250.69775328696653 L 982 251.78880051579804 L 983 252.90063798227004 L 984 254.0331118006188 L 985 255.18606522887117 L 986 256.3593386905385 L 987 257.5527697967034 L 988 258.7661933684949 L 989 259.99944145995096 L 990 261.25234338126313 L 991 262.5247257224007 L 992 263.81641237711256 L 993 265.1272245673008 L 994 266.4569808677653 L 995 267.80549723131395 L 996 269.172587014236 L 997 270.558061002135 L 998 271.96172743611703 L 999 273.38339203933197 L 1000 274.8228580438616 L 1001 276.279926217955 L 1002 277.7543948936028 L 1003 279.24605999444935 L 1004 280.75471506403846 L 1005 282.2801512943883 L 1006 283.8221575548918 L 1007 285.38052042153856 L 1008 286.95502420645425 L 1009 288.545450987753 L 1010 290.1515806396996 L 1011 291.7731908631761 L 1012 293.41005721644973 L 1013 295.0619531462369 L 1014 296.7286500190597 L 1015 298.40991715289084 L 1016 300.1055218490807 L 1017 301.81522942456496 L 1018 303.53880324434647 L 1019 305.27600475424657 L 1020 307.026593513923 L 1021 308.79032723014825 L 1022 310.5669617903448 L 1023 312.3562512963715 L 1024 314.15794809855817 L 1025 315.97180282998124 L 1026 317.79756444097853 L 1027 319.6349802338956 L 1028 321.4837958980611 L 1029 323.3437555449852 L 1030 325.2146017437758 L 1031 327.0960755567693 L 1032 328.9879165753688 L 1033 330.88986295608663 L 1034 332.80165145678535 L 1035 334.72301747311195 L 1036 336.65369507512105 L 1037 338.5934170440813 L 1038 340.54191490946044 L 1039 342.49891898608314 L 1040 344.4641584114574 L 1041 346.4373611832637 L 1042 348.4182541970024 L 1043 350.4065632837916 L 1044 352.40201324831634 L 1045 354.4043279069158 L 1046 356.4132301258095 L 1047 358.42844185945444 L 1048 360.4496841890284 L 1049 362.4766773610343 L 1050 364.5091408260199 L 1051 366.54679327740763 L 1052 368.58935269042945 L 1053 370.6365363611609 L 1054 372.6880609456492 L 1055 374.74364249913015 L 1056 376.80299651532755 L 1057 378.86583796583125 L 1058 380.9318813395468 L 1059 383.000840682212 L 1060 385.07242963597514 L 1061 387.1463614790284 L 1062 389.2223491652927 L 1063 391.3001053641463 L 1064 393.3793425001935 L 1065 395.45977279306686 L 1066 397.5411082972582 L 1067 399.62306094197186 L 1068 401.7053425709959 L 1069 403.7876649825848 L 1070 405.8697399693482 L 1071 407.9512793581412 L 1072 410.0319950499493 L 1073 412.111599059763 L 1074 414.18980355643725 L 1075 416.2663209025289 L 1076 418.34086369410767 L 1077 420.413144800535 L 1078 422.4828774042047 L 1079 424.5497750402405 L 1080 426.61355163614456 L 1081 428.67392155139197 L 1082 430.7305996169653 L 1083 432.783301174824 L 1084 434.8317421173028 L 1085 436.8756389264337 L 1086 438.9147087131878 L 1087 440.9486692566285 L 1088 442.97723904297237 L 1089 445.00013730455333 L 1090 447.0170840586821 L 1091 449.02780014639796 L 1092 451.03200727110635 L 1093 453.0294280370968 L 1094 455.01978598793636 L 1095 457.00280564473314 L 1096 458.9782125442643 L 1097 460.9457332769638 L 1098 462.9050955247638 L 1099 464.85602809878566 L 1100 466.7982609768741 L 1101 468.73152534097005 L 1102 470.655553614317 L 1103 472.5700794984954 L 1104 474.47483801028 L 1105 476.3695655183154 L 1106 478.2539997796046 L 1107 480.12787997580483 L 1108 481.99094674932667 L 1109 483.84294223923104 L 1110 485.6836101169188 L 1111 487.5126956216084 L 1112 489.32994559559603 L 1113 491.1351085192953 L 1114 492.9279345460481 L 1115 494.708175536706 L 1116 496.4755850939739 L 1117 498.229918596513 L 1118 499.9709332327984 L 1119 501.6983880347255 L 1120 503.4120439109617 L 1121 505.1116636800385 L 1122 506.7970121031785 L 1123 508.4678559168545 L 1124 510.12396386507453 L 1125 511.76510673138915 L 1126 513.3910573706167 L 1127 515.0015907402822 L 1128 516.5964839317627 L 1129 518.1755162011424 L 1130 519.7384689997627 L 1131 521.2851260044721 L 1132 522.8152731475657 L 1133 524.3286986464146 L 1134 525.8251930327777 L 1135 527.3045491817933 L 1136 528.7665623406465 L 1137 530.2110301569088 L 1138 531.6377527065449 L 1139 533.0465325215835 L 1140 534.4371746174476 L 1141 535.8094865199428 L 1142 537.163278291896 L 1143 538.4983625594448 L 1144 539.8145545379706 L 1145 541.1116720576745 L 1146 542.3895355887904 L 1147 543.6479682664337 L 1148 544.8867959150801 L 1149 546.1058470726729 L 1150 547.3049530143542 L 1151 548.483947775818 L 1152 549.6426681762807 L 1153 550.7809538410659 L 1154 551.8986472238017 L 1155 552.9955936282266 L 1156 554.0716412295998 L 1157 555.1266410957148 L 1158 556.1604472075132 L 1159 557.1729164792944 L 1160 558.1639087785193 L 1161 559.1332869452059 L 1162 560.0809168109134 L 1163 561.0066672173116 L 1164 561.9104100343343 L 1165 562.792020177913 L 1166 563.6513756272899 L 1167 564.4883574419064 L 1168 565.3028497778646 L 1169 566.0947399039617 L 1170 566.8639182172919 L 1171 567.6102782584171 L 1172 568.333716726101 L 1173 569.0341334916066 L 1174 569.7114316125551 L 1175 570.3655173463433 L 1176 570.9963001631179 L 1177 571.6036927583058 L 1178 572.1876110646972 L 1179 572.7479742640817 L 1180 573.2847047984333 L 1181 573.7977283806458 L 1182 574.2869740048139 L 1183 574.7523739560615 L 1184 575.1938638199132 L 1185 575.6113824912103 L 1186 576.004872182568 L 1187 576.3742784323733 L 1188 576.7195501123235 L 1189 577.0406394345018 L 1190 577.3375019579921 L 1191 577.6100965950297 L 1192 577.8583856166883 L 1193 578.082334658102 L 1194 578.2819127232208 L 1195 578.457092189102 L 1196 578.6078488097322 L 1197 578.7341617193839 L 1198 578.836013435503 L 1199 578.913389861129 L 1200 578.9662802868453 L 1201 578.9946773922622 L 1202 578.99857724703 L 1203 578.9779793113825 L 1204 578.9328864362121 L 1205 578.8633048626754 L 1206 578.7692442213288 L 1207 578.650717530796 L 1208 578.5077411959662 L 1209 578.3403350057232 L 1210 578.1485221302066 L 1211 577.9323291176053 L 1212 577.6917858904822 L 1213 577.4269257416336 L 1214 577.137785329481 L 1215 576.8244046729968 L 1216 576.4868271461662 L 1217 576.1250994719834 L 1218 575.7392717159848 L 1219 575.3293972793203 L 1220 574.8955328913613 L 1221 574.4377386018494 L 1222 573.9560777725853 L 1223 573.4506170686589 L 1224 572.921426449222 L 1225 572.3685791578066 L 1226 571.7921517121861 L 1227 571.1922238937857 L 1228 570.5688787366399 L 1229 569.9222025159 L 1230 569.2522847358928 L 1231 568.559218117733 L 1232 567.8430985864898 L 1233 567.1040252579098 L 1234 566.3421004246998 L 1235 565.5574295423676 L 1236 564.7501212146271 L 1237 563.9202871783663 L 1238 563.0680422881824 L 1239 562.193504500485 L 1240 561.2967948571707 L 1241 560.3780374688693 L 1242 559.4373594977662 L 1243 558.4748911400031 L 1244 557.4907656076568 L 1245 556.4851191103027 L 1246 555.458090836162 L 1247 554.4098229328372 L 1248 553.3404604876381 L 1249 552.2501515075005 L 1250 551.1390468985011 L 1251 550.0073004449711 L 1252 548.8550687882116 L 1253 547.6825114048133 L 1254 546.4897905845835 L 1255 545.2770714080848 L 1256 544.0445217237863 L 1257 542.7923121248322 L 1258 541.520615925431 L 1259 540.2296091368673 L 1260 538.9194704431411 L 1261 537.5903811762358 L 1262 536.2425252910218 L 1263 534.8760893397953 L 1264 533.4912624464578 L 1265 532.0882362803411 L 1266 530.6672050296783 L 1267 529.2283653747266 L 1268 527.7719164605465 L 1269 526.2980598694377 L 1270 524.8069995930389 L 1271 523.2989420040948 L 1272 521.7740958278916 L 1273 520.2326721133694 L 1274 518.6748842039099 L 1275 517.1009477078097 L 1276 515.511080468438 L 1277 513.9055025340857 L 1278 512.2844361275093 L 1279 510.64810561517373 L 1280 508.9967374761986 L 1281 507.33056027101185 L 1282 505.6498046097156 L 1283 503.954703120168 L 1284 502.2454904157862 L 1285 500.52240306307397 L 1286 498.78567954887967 L 1287 497.03556024738765 L 1288 495.2722873868493 L 1289 493.49610501605673 L 1290 491.7072589705648 L 1291 489.90599683866606 L 1292 488.09256792712256 L 1293 486.2672232266603 L 1294 484.43021537723047 L 1295 482.58179863304224 L 1296 480.72222882737236 L 1297 478.8517633371559 L 1298 476.9706610473644 L 1299 475.0791823151733 L 1300 473.17758893392715 L 1301 471.2661440969062 L 1302 469.34511236089793 L 1303 467.4147596095811 L 1304 465.47535301672553 L 1305 463.5271610092134 L 1306 461.57045322988716 L 1307 459.6055005002293 L 1308 457.63257478287875 L 1309 455.6519491439893 L 1310 453.66389771543567 L 1311 451.6686956568716 L 1312 449.66661911764595 L 1313 447.65794519858196 L 1314 445.6429519136244 L 1315 443.62191815136066 L 1316 441.5951236364208 L 1317 439.56284889076153 L 1318 437.5253751948404 L 1319 435.48298454868456 L 1320 433.4359596328599 L 1321 431.3845837693465 L 1322 429.3291408823246 L 1323 427.2699154588781 L 1324 425.20719250961884 L 1325 423.1412575292401 L 1326 421.0723964570016 L 1327 419.0008956371539 L 1328 416.9270417793063 L 1329 414.8511219187444 L 1330 412.7734233767023 L 1331 410.6942337205956 L 1332 408.6138407242202 L 1333 406.5325323279223 L 1334 404.4505965987455 L 1335 402.36832169056055 L 1336 400.28599580418296 L 1337 398.20390714748373 L 1338 396.12234389549985 L 1339 394.04159415054846 L 1340 391.96194590235274 L 1341 389.88368698818044 L 1342 387.80710505300635 L 1343 385.7324875097004 L 1344 383.6601214992471 L 1345 381.5902938510041 L 1346 379.52329104300253 L 1347 377.45939916229656 L 1348 375.3989038653674 L 1349 373.3420903385861 L 1350 371.2892432587421 L 1351 369.2406467536419 L 1352 367.19658436278405 L 1353 365.1573389981152 L 1354 363.12319290487335 L 1355 361.09442762252297 L 1356 359.0713239457883 L 1357 357.0541618857895 L 1358 355.04322063128683 L 1359 353.0387785100396 L 1360 351.04111295028343 L 1361 349.0505004423323 L 1362 347.06721650031045 L 1363 345.0915356240197 L 1364 343.1237312609462 L 1365 341.16407576841425 L 1366 339.21284037588936 L 1367 337.27029514743907 L 1368 335.33670894435375 L 1369 333.41234938793457 L 1370 331.49748282245304 L 1371 329.5923742782868 L 1372 327.69728743523814 L 1373 325.8124845860385 L 1374 323.9382266000457 L 1375 322.07477288713767 L 1376 320.2223813618086 L 1377 318.38130840747147 L 1378 316.5518088409734 L 1379 314.7341358773268 L 1380 312.928541094663 L 1381 311.135274399412 L 1382 309.35458399171387 L 1383 307.5867163310661 L 1384 305.83191610221184 L 1385 304.0904261812743 L 1386 302.36248760214056 L 1387 300.64833952310113 L 1388 298.94821919374886 L 1389 297.26236192214185 L 1390 295.5910010422355 L 1391 293.9343678815872 L 1392 292.2926917293392 L 1393 290.66619980448354 L 1394 289.0551172244133 L 1395 287.4596669737648 L 1396 285.88006987355527 L 1397 284.3165445506195 L 1398 282.7693074073503 L 1399 281.2385725917474 L 1400 279.7245519677777 L 1401 278.2274550860517 L 1402 276.7474891548204 L 1403 275.28485901129613 L 1404 273.83976709330307 L 1405 272.41241341125607 L 1406 271.00299552047954 L 1407 269.61170849386406 L 1408 268.238744894867 L 1409 266.8842947508605 L 1410 265.54854552683025 L 1411 264.2316820994292 L 1412 262.9338867313893 L 1413 261.6553390462953 L 1414 260.39621600372334 L 1415 259.1566918747491 L 1416 257.93693821782654 L 1417 256.73712385504416 L 1418 255.55741484875827 L 1419 254.39797447860897 L 1420 253.25896321892105 L 1421 252.1405387164935 L 1422 251.04285576877996 L 1423 249.96606630246373 L 1424 248.9103193524302 L 1425 247.8757610411393 L 1426 246.8625345584012 L 1427 245.870780141558 L 1428 244.9006350560737 L 1429 243.952233576536 L 1430 243.0257069680717 L 1431 242.12118346817857 L 1432 241.23878826897663 L 1433 240.37864349988067 L 1434 239.5408682106967 L 1435 238.72557835514456 L 1436 237.93288677480933 L 1437 237.16290318352324 L 1438 236.41573415218036 L 1439 235.69148309398676 L 1440 234.99025025014726 L 1441 234.31213267599134 L 1442 233.65722422754015 L 1443 233.02561554851619 L 1444 232.4173940577975 L 1445 231.83264393731844 L 1446 231.2714461204182 L 1447 230.73387828063923 L 1448 230.22001482097662 L 1449 229.72992686358026 L 1450 229.26368223991096 L 1451 228.82134548135227 L 1452 228.40297781027883 L 1453 228.00863713158276 L 1454 227.6383780246593 L 1455 227.2922517358525 L 1456 226.97030617136264 L 1457 226.6725858906155 L 1458 226.39913210009504 L 1459 226.14998264764026 L 1460 225.92517201720668 L 1461 225.72473132409357 L 1462 225.5486883106375 L 1463 225.3970673423724 L 1464 225.26988940465736 L 1465 225.1671720997721 L 1466 225.0889296444807 L 1467 225.03517286806374 L 1468 225.00590921081974 L 1469 225.00114272303517 L 1470 225.02087406442388 L 1471 225.06510050403588 L 1472 225.13381592063524 L 1473 225.2270108035474 L 1474 225.34467225397532 L 1475 225.48678398678507 L 1476 225.65332633275946 L 1477 225.84427624132064 L 1478 226.0596072837204 L 1479 226.29928965669794 L 1480 226.56329018660506 L 1481 226.85157233399747 L 1482 227.16409619869216 L 1483 227.50081852528982 L 1484 227.86169270916164 L 1485 228.24666880289985 L 1486 228.65569352323055 L 1487 229.08871025838874 L 1488 229.54565907595367 L 1489 230.02647673114342 L 1490 230.5310966755693 L 1491 231.05944906644595 L 1492 231.61146077625824 L 1493 232.1870554028826 L 1494 232.78615328016153 L 1495 233.40867148893003 L 1496 234.05452386849205 L 1497 234.72362102854586 L 1498 235.41587036155613 L 1499 236.13117605557144 L 1500 236.86943910748548 L 1501 237.63055733673949 L 1502 238.41442539946485 L 1503 239.22093480306344 L 1504 240.04997392122365 L 1505 240.90142800937028 L 1506 241.77517922054582 L 1507 242.67110662172152 L 1508 243.58908621053502 L 1509 244.52899093245335 L 1510 245.490690698358 L 1511 246.47405240255023 L 1512 247.47893994117368 L 1513 248.5052142310521 L 1514 249.55273322893942 L 1515 250.6213519511795 L 1516 251.71092249377273 L 1517 252.82129405284712 L 1518 253.95231294553037 L 1519 255.10382263122074 L 1520 256.2756637332533 L 1521 257.46767406095876 L 1522 258.67968863211155 L 1523 259.91153969576476 L 1524 261.1630567554678 L 1525 262.43406659286416 L 1526 263.7243932916665 L 1527 265.033858262004 L 1528 266.3622802651407 L 1529 267.70947543856016 L 1530 269.07525732141335 L 1531 270.45943688032577 L 1532 271.8618225355613 L 1533 273.282220187538 L 1534 274.72043324369247 L 1535 276.17626264569014 L 1536 277.64950689697605 L 1537 279.139962090663 L 1538 280.64742193775413 L 1539 282.1716777956944" stroke-linecap="round" stroke-linejoin="round" stroke-miterlimit="10" stroke-width="16"/></g></svg>