<svg version="1.1" xmlns="http://www.w3.org/2000/svg" xmlns:xlink="http://www.w3.org/1999/xlink" width="1560" height="804"><defs/><g><path fill="none" stroke="#02063B" paint-order="fill stroke markers" d=" M 20 407.2951669007803 L 21 407.5584762094147 L 22 407.8215737188356 L 23 408.0844494040211 L 24 408.34709324840173 L 25 408.6094952442419 L 26 408.87164539302154 L 27 409.13353370581683 L 28 409.39515020368094 L 29 409.65648491802415 L 30 409.9175278909939 L 31 410.1782691758539 L 32 410.43869883736363 L 33 410.69880695215625 L 34 410.95858360911734 L 35 411.2180189097623 L 36 411.4771029686133 L 37 411.73582591357626 L 38 411.9941778863171 L 39 412.252149042637 L 40 412.5097295528477 L 41 412.7669096021462 L 42 413.0236793909884 L 43 413.2800291354629 L 44 413.5359490676634 L 45 413.79142943606126 L 46 414.0464605058768 L 47 414.30103255945033 L 48 414.5551358966125 L 49 414.8087608350539 L 50 415.0618977106937 L 51 415.3145368780484 L 52 415.56666871059895 L 53 415.8182836011577 L 54 416.0693719622345 L 55 416.3199242264021 L 56 416.5699308466603 L 57 416.81938229680037 L 58 417.0682690717674 L 59 417.31658168802295 L 60 417.56431068390606 L 61 417.8114466199941 L 62 418.0579800794622 L 63 418.30390166844217 L 64 418.5492020163805 L 65 418.7938717763952 L 66 419.0379016256321 L 67 419.2812822656203 L 68 419.52400442262604 L 69 419.7660588480063 L 70 420.0074363185613 L 71 420.2481276368857 L 72 420.4881236317193 L 73 420.7274151582963 L 74 420.96599309869384 L 75 421.20384836217954 L 76 421.44097188555764 L 77 421.67735463351454 L 78 421.912987598963 L 79 422.14786180338535 L 80 422.3819682971757 L 81 422.61529815998074 L 82 422.84784250103985 L 83 423.07959245952384 L 84 423.3105392048724 L 85 423.54067393713086 L 86 423.7699878872853 L 87 423.9984723175967 L 88 424.2261185219339 L 89 424.4529178261056 L 90 424.6788615881902 L 91 424.90394119886594 L 92 425.12814808173835 L 93 425.3514736936672 L 94 425.57390952509206 L 95 425.7954471003567 L 96 426.01607797803166 L 97 426.2357937512363 L 98 426.45458604795897 L 99 426.67244653137584 L 100 426.88936690016885 L 101 427.1053388888419 L 102 427.32035426803577 L 103 427.5344048448418 L 104 427.74748246311384 L 105 427.9595790037793 L 106 428.17068638514843 L 107 428.3807965632222 L 108 428.5899015319987 L 109 428.79799332377854 L 110 429.0050640094682 L 111 429.21110569888214 L 112 429.4161105410436 L 113 429.6200707244836 L 114 429.82297847753864 L 115 430.024826068647 L 116 430.22560580664293 L 117 430.4253100410502 L 118 430.6239311623733 L 119 430.82146160238744 L 120 431.017893834427 L 121 431.2132203736723 L 122 431.4074337774347 L 123 431.6005266454404 L 124 431.79249162011223 L 125 431.9833213868501 L 126 432.17300867430964 L 127 432.36154625467935 L 128 432.54892694395596 L 129 432.7351436022182 L 130 432.9201891338989 L 131 433.10405648805505 L 132 433.286738658637 L 133 433.4682286847549 L 134 433.6485196509443 L 135 433.8276046874296 L 136 434.00547697038553 L 137 434.18212972219743 L 138 434.35755621171955 L 139 434.53174975453135 L 140 434.70470371319226 L 141 434.87641149749464 L 142 435.0468665647149 L 143 435.2160624198626 L 144 435.3839926159284 L 145 435.5506507541291 L 146 435.7160304841519 L 147 435.8801255043963 L 148 436.04292956221406 L 149 436.20443645414764 L 150 436.36464002616646 L 151 436.52353417390134 L 152 436.6811128428772 L 153 436.83737002874386 L 154 436.99229977750457 L 155 437.145896185743 L 156 437.2981534008483 L 157 437.449065621238 L 158 437.5986270965789 L 159 437.7468321280066 L 160 437.8936750683422 L 161 438.0391503223078 L 162 438.18325234673955 L 163 438.3259756507989 L 164 438.4673147961819 L 165 438.6072643973261 L 166 438.7458191216163 L 167 438.8829736895873 L 168 439.01872287512515 L 169 439.15306150566647 L 170 439.28598446239545 L 171 439.41748668043874 L 172 439.5475631490586 L 173 439.67620891184384 L 174 439.80341906689864 L 175 439.92918876702936 L 176 440.0535132199291 L 177 440.1763876883605 L 178 440.297807490336 L 179 440.41776799929676 L 180 440.5362646442881 L 181 440.6532929101346 L 182 440.7688483376114 L 183 440.88292652361463 L 184 440.99552312132874 L 185 441.10663384039265 L 186 441.2162544470626 L 187 441.3243807643742 L 188 441.43100867230095 L 189 441.5361341079115 L 190 441.6397530655244 L 191 441.74186159686104 L 192 441.8424558111956 L 193 441.9415318755035 L 194 442.03908601460756 L 195 442.1351145113219 L 196 442.2296137065932 L 197 442.32257999964065 L 198 442.4140098480927 L 199 442.5038997681222 L 200 442.5922463345792 L 201 442.67904618112163 L 202 442.764296000343 L 203 442.84799254389907 L 204 442.9301326226313 L 205 443.01071310668823 L 206 443.0897309256452 L 207 443.1671830686209 L 208 443.2430665843923 L 209 443.3173785815071 L 210 443.3901162283938 L 211 443.4612767534698 L 212 443.53085744524674 L 213 443.598855652434 L 214 443.6652687840397 L 215 443.73009430946934 L 216 443.79332975862246 L 217 443.85497272198637 L 218 443.9150208507283 L 219 443.9734718567848 L 220 444.0303235129488 L 221 444.0855736529548 L 222 444.1392201715609 L 223 444.1912610246295 L 224 444.241694229205 L 225 444.2905178635893 L 226 444.33773006741507 L 227 444.3833290417167 L 228 444.42731304899877 L 229 444.46968041330234 L 230 444.5104295202687 L 231 444.5495588172009 L 232 444.58706681312304 L 233 444.6229520788369 L 234 444.6572132469766 L 235 444.68984901206045 L 236 444.720858130541 L 237 444.75023942085215 L 238 444.7779917634543 L 239 444.804114100877 L 240 444.82860543775917 L 241 444.8514648408873 L 242 444.87269143923055 L 243 444.89228442397433 L 244 444.91024304855097 L 245 444.9265666286681 L 246 444.94125454233495 L 247 444.9543062298857 L 248 444.9657211940011 L 249 444.97549899972745 L 250 444.9836392744928 L 251 444.9901417081217 L 252 444.9950060528464 L 253 444.9982321233168 L 254 444.9998197966073 L 255 444.99976901222146 L 256 444.9980797720943 L 257 444.9947521405924 L 258 444.98978624451127 L 259 444.98318227307044 L 260 444.9749404779066 L 261 444.9650611730637 L 262 444.95354473498094 L 263 444.9403916024788 L 264 444.92560227674187 L 265 444.90917732130015 L 266 444.8911173620072 L 267 444.8714230870166 L 268 444.85009524675564 L 269 444.82713465389656 L 270 444.8025421833259 L 271 444.7763187721108 L 272 444.7484654194637 L 273 444.7189831867038 L 274 444.687873197217 L 275 444.65513663641303 L 276 444.62077475168 L 277 444.58478885233734 L 278 444.5471803095854 L 279 444.50795055645364 L 280 444.4671010877458 L 281 444.42463345998283 L 282 444.380549291344 L 283 444.3348502616047 L 284 444.28753811207287 L 285 444.2386146455225 L 286 444.18808172612484 L 287 444.1359412793775 L 288 444.082195292031 L 289 444.0268458120131 L 290 443.9698949483509 L 291 443.9113448710901 L 292 443.8511978112127 L 293 443.78945606055197 L 294 443.72612197170474 L 295 443.66119795794214 L 296 443.59468649311765 L 297 443.5265901115725 L 298 443.4569114080394 L 299 443.38565303754365 L 300 443.3128177153018 L 301 443.23840821661827 L 302 443.1624273767798 L 303 443.0848780909471 L 304 443.0057633140447 L 305 442.92508606064837 L 306 442.8428494048701 L 307 442.75905648024127 L 308 442.67371047959284 L 309 442.5868146549341 L 310 442.49837231732846 L 311 442.40838683676736 L 312 442.31686164204206 L 313 442.22380022061265 L 314 442.12920611847534 L 315 442.03308294002744 L 316 441.93543434792986 L 317 441.83626406296764 L 318 441.7355758639081 L 319 441.6333735873569 L 320 441.5296611276119 L 321 441.4244424365147 L 322 441.3177215233 L 323 441.209502454443 L 324 441.0997893535043 L 325 440.9885864009729 L 326 440.8758978341068 L 327 440.76172794677166 L 328 440.646081089277 L 329 440.5289616682107 L 330 440.4103741462708 L 331 440.2903230420956 L 332 440.16881293009175 L 333 440.0458484402593 L 334 439.921434258016 L 335 439.79557512401817 L 336 439.66827583398043 L 337 439.5395412384929 L 338 439.40937624283623 L 339 439.2777858067949 L 340 439.144774944468 L 341 439.0103487240784 L 342 438.8745122677795 L 343 438.73727075146 L 344 438.59862940454695 L 345 438.4585935098061 L 346 438.31716840314095 L 347 438.1743594733892 L 348 438.03017216211754 L 349 437.88461196341433 L 350 437.7376844236801 L 351 437.5893951414163 L 352 437.4397497670121 L 353 437.28875400252883 L 354 437.13641360148296 L 355 436.9827343686267 L 356 436.8277221597269 L 357 436.67138288134186 L 358 436.5137224905963 L 359 436.3547469949545 L 360 436.1944624519911 L 361 436.03287496916056 L 362 435.8699907035643 L 363 435.70581586171613 L 364 435.5403566993057 L 365 435.37361952096035 L 366 435.2056106800045 L 367 435.0363365782179 L 368 434.8658036655916 L 369 434.6940184400822 L 370 434.520987447364 L 371 434.34671728058004 L 372 434.17121458009046 L 373 433.9944860332198 L 374 433.81653837400194 L 375 433.6373783829236 L 376 433.457012886666 L 377 433.27544875784474 L 378 433.09269291474794 L 379 432.90875232107254 L 380 432.7236339856589 L 381 432.5373449622242 L 382 432.3498923490929 L 383 432.1612832889269 L 384 431.97152496845314 L 385 431.78062461818973 L 386 431.58858951217053 L 387 431.3954269676679 L 388 431.201144344914 L 389 431.0057490468201 L 390 430.8092485186948 L 391 430.61165024796014 L 392 430.4129617638664 L 393 430.21319063720506 L 394 430.0123444800205 L 395 429.81043094531987 L 396 429.6074577267815 L 397 429.4034325584617 L 398 429.1983632145001 L 399 428.99225750882334 L 400 428.7851232948476 L 401 428.576968465179 L 402 428.36780095131303 L 403 428.15762872333244 L 404 427.94645978960335 L 405 427.73430219647014 L 406 427.52116402794894 L 407 427.30705340541965 L 408 427.09197848731617 L 409 426.875947468816 L 410 426.6589685815275 L 411 426.4410500931766 L 412 426.22220030729164 L 413 426.0024275628869 L 414 425.7817402341449 L 415 425.56014673009724 L 416 425.3376554943045 L 417 425.1142750045341 L 418 424.8900137724375 L 419 424.6648803432258 L 420 424.43888329534406 L 421 424.21203124014465 L 422 423.984332821559 L 423 423.75579671576816 L 424 423.52643163087214 L 425 423.2962463065585 L 426 423.06524951376883 L 427 422.8334500543649 L 428 422.60085676079314 L 429 422.367478495748 L 430 422.13332415183453 L 431 421.8984026512291 L 432 421.6627229453399 L 433 421.4262940144656 L 434 421.18912486745313 L 435 420.9512245413545 L 436 420.7126021010826 L 437 420.47326663906546 L 438 420.23322727489995 L 439 419.99249315500447 L 440 419.7510734522701 L 441 419.50897736571136 L 442 419.26621412011554 L 443 419.0227929656913 L 444 418.778723177716 L 445 418.53401405618257 L 446 418.2886749254449 L 447 418.04271513386277 L 448 417.79614405344535 L 449 417.5489710794943 L 450 417.3012056302458 L 451 417.0528571465116 L 452 416.80393509131915 L 453 416.5544489495514 L 454 416.3044082275849 L 455 416.053822452928 L 456 415.80270117385766 L 457 415.5510539590555 L 458 415.2988903972433 L 459 415.0462200968178 L 460 414.79305268548427 L 461 414.53939780988975 L 462 414.28526513525577 L 463 414.03066434500965 L 464 413.7756051404157 L 465 413.5200972402056 L 466 413.26415038020815 L 467 413.0077743129781 L 468 412.7509788074246 L 469 412.4937736484391 L 470 412.2361686365224 L 471 411.9781735874111 L 472 411.71979833170394 L 473 411.46105271448675 L 474 411.2019465949577 L 475 410.94248984605144 L 476 410.6826923540629 L 477 410.42256401827075 L 478 410.16211475055985 L 479 409.90135447504406 L 480 409.6402931276876 L 481 409.3789406559268 L 482 409.1173070182909 L 483 408.8554021840227 L 484 408.59323613269856 L 485 408.3308188538483 L 486 408.0681603465743 L 487 407.8052706191708 L 488 407.5421596887424 L 489 407.2788375808224 L 490 407.01531432899066 L 491 406.7515999744915 L 492 406.487704565851 L 493 406.22363815849394 L 494 405.95941081436104 L 495 405.69503260152504 L 496 405.43051359380763 L 497 405.1658638703952 L 498 404.9010935154549 L 499 404.6362126177503 L 500 404.3712312702574 L 501 404.1061595697793 L 502 403.8410076165623 L 503 403.5757855139103 L 504 403.31050336780044 L 505 403.04517128649746 L 506 402.77979938016904 L 507 402.5143977605003 L 508 402.24897654030843 L 509 401.98354583315773 L 510 401.7181157529737 L 511 401.45269641365815 L 512 401.1872979287036 L 513 400.9219304108077 L 514 400.65660397148855 L 515 400.3913287206987 L 516 400.12611476644025 L 517 399.8609722143798 L 518 399.59591116746316 L 519 399.3309417255304 L 520 399.0660739849313 L 521 398.80131803814027 L 522 398.53668397337196 L 523 398.2721818741969 L 524 398.00782181915724 L 525 397.74361388138266 L 526 397.47956812820655 L 527 397.2156946207826 L 528 396.95200341370105 L 529 396.68850455460597 L 530 396.42520808381227 L 531 396.16212403392285 L 532 395.8992624294469 L 533 395.6366332864173 L 534 395.37424661200936 L 535 395.1121124041595 L 536 394.8502406511841 L 537 394.5886413313989 L 538 394.3273244127392 L 539 394.06629985237936 L 540 393.8055775963541 L 541 393.54516757917906 L 542 393.2850797234722 L 543 393.0253239395763 L 544 392.76591012518054 L 545 392.50684816494396 L 546 392.2481479301186 L 547 391.9898192781733 L 548 391.73187205241817 L 549 391.47431608162964 L 550 391.21716117967577 L 551 390.9604171451423 L 552 390.7040937609594 L 553 390.4482007940288 L 554 390.1927479948519 L 555 389.9377450971577 L 556 389.68320181753245 L 557 389.4291278550491 L 558 389.1755328908979 L 559 388.92242658801734 L 560 388.66981859072615 L 561 388.41771852435556 L 562 388.1661359948829 L 563 387.9150805885651 L 564 387.66456187157394 L 565 387.41458938963115 L 566 387.16517266764475 L 567 386.91632120934634 L 568 386.6680444969287 L 569 386.42035199068465 L 570 386.1732531286464 L 571 385.9267573262263 L 572 385.68087397585754 L 573 385.43561244663664 L 574 385.19098208396645 L 575 384.9469922091999 L 576 384.70365211928475 L 577 384.4609710864097 L 578 384.21895835765065 L 579 383.9776231546187 L 580 383.7369746731086 L 581 383.4970220827483 L 582 383.2577745266497 L 583 383.0192411210602 L 584 382.7814309550153 L 585 382.54435308999234 L 586 382.3080165595652 L 587 382.07243036906004 L 588 381.83760349521214 L 589 381.603544885824 L 590 381.3702634594244 L 591 381.1377681049282 L 592 380.90606768129817 L 593 380.675171017207 L 594 380.44508691070115 L 595 380.21582412886556 L 596 379.9873914074895 L 597 379.7597974507337 L 598 379.5330509307989 L 599 379.30716048759507 L 600 379.0821347284126 L 601 378.85798222759394 L 602 378.63471152620707 L 603 378.4123311317202 L 604 378.1908495176772 L 605 377.9702751233751 L 606 377.75061635354234 L 607 377.53188157801867 L 608 377.314079131436 L 609 377.097217312901 L 610 376.8813043856788 L 611 376.6663485768781 L 612 376.4523580771378 L 613 376.2393410403147 L 614 376.02730558317313 L 615 375.8162597850754 L 616 375.60621168767386 L 617 375.3971692946049 L 618 375.1891405711836 L 619 374.9821334441004 L 620 374.7761558011188 L 621 374.5712154907754 L 622 374.36732032208005 L 623 374.16447806421905 L 624 373.9626964462586 L 625 373.76198315685036 L 626 373.56234584393883 L 627 373.36379211446945 L 628 373.1663295340992 L 629 372.96996562690794 L 630 372.7747078751119 L 631 372.5805637187787 L 632 372.38754055554347 L 633 372.19564574032745 L 634 372.0048865850574 L 635 371.815270358387 L 636 371.6268042854202 L 637 371.4394955474354 L 638 371.2533512816124 L 639 371.06837858076 L 640 370.88458449304585 L 641 370.70197602172806 L 642 370.5205601248881 L 643 370.3403437151659 L 644 370.16133365949617 L 645 369.98353677884717 L 646 369.80695984796034 L 647 369.6316095950924 L 648 369.45749270175907 L 649 369.2846158024802 L 650 369.11298548452714 L 651 368.9426082876718 L 652 368.77349070393734 L 653 368.6056391773509 L 654 368.4390601036978 L 655 368.27375983027827 L 656 368.1097446556653 L 657 367.9470208294645 L 658 367.78559455207653 L 659 367.62547197446014 L 660 367.46665919789825 L 661 367.3091622737654 L 662 367.15298720329713 L 663 366.99813993736115 L 664 366.84462637623085 L 665 366.6924523693603 L 666 366.54162371516156 L 667 366.39214616078345 L 668 366.24402540189277 L 669 366.0972670824573 L 670 365.9518767945305 L 671 365.80786007803874 L 672 365.66522242057005 L 673 365.5239692571649 L 674 365.3841059701094 L 675 365.2456378887299 L 676 365.10857028919025 L 677 364.97290839429047 L 678 364.8386573732679 L 679 364.7058223416001 L 680 364.5744083608101 L 681 364.4444204382734 L 682 364.3158635270274 L 683 364.1887425255822 L 684 364.06306227773445 L 685 363.93882757238254 L 686 363.8160431433441 L 687 363.6947136691757 L 688 363.57484377299465 L 689 363.4564380223027 L 690 363.33950092881184 L 691 363.22403694827307 L 692 363.11005048030574 L 693 362.9975458682305 L 694 362.8865273989035 L 695 362.77699930255335 L 696 362.66896575261956 L 697 362.5624308655938 L 698 362.457398700863 L 699 362.35387326055445 L 700 362.2518584893836 L 701 362.1513582745036 L 702 362.05237644535725 L 703 361.95491677353095 L 704 361.85898297261116 L 705 361.7645786980428 L 706 361.6717075469899 L 707 361.58037305819886 L 708 361.49057871186307 L 709 361.4023279294907 L 710 361.31562407377436 L 711 361.2304704484627 L 712 361.14687029823466 L 713 361.0648268085759 L 714 360.98434310565733 L 715 360.90542225621596 L 716 360.82806726743814 L 717 360.752281086845 L 718 360.67806660218 L 719 360.60542664129906 L 720 360.5343639720625 L 721 360.46488130223014 L 722 360.3969812793574 L 723 360.3306664906951 L 724 360.2659394630903 L 725 360.20280266289063 L 726 360.1412584958497 L 727 360.08130930703567 L 728 360.0229573807422 L 729 359.9662049404008 L 730 359.91105414849676 L 731 359.85750710648625 L 732 359.80556585471646 L 733 359.7552323723478 L 734 359.7065085772786 L 735 359.65939632607194 L 736 359.61389741388473 L 737 359.5700135743998 L 738 359.52774647975923 L 739 359.4870977405011 L 740 359.44806890549796 L 741 359.41066146189775 L 742 359.3748768350672 L 743 359.3407163885375 L 744 359.3081814239524 L 745 359.27727318101864 L 746 359.2479928374584 L 747 359.2203415089649 L 748 359.19432024915955 L 749 359.1699300495519 L 750 359.14717183950194 L 751 359.1260464861845 L 752 359.1065547945564 L 753 359.0886975073257 L 754 359.07247530492333 L 755 359.0578888054773 L 756 359.0449385647891 L 757 359.0336250763124 L 758 359.02394877113437 L 759 359.0159100179593 L 760 359.0095091230945 L 761 359.00474633043854 L 762 359.001621821472 L 763 359.0001357152506 L 764 359.0002880684008 L 765 359.0020788751172 L 766 359.0055080671633 L 767 359.0105755138738 L 768 359.0172810221595 L 769 359.02562433651497 L 770 359.03560513902795 L 771 359.0472230493917 L 772 359.0604776249193 L 773 359.0753683605608 L 774 359.09189468892214 L 775 359.110055980287 L 776 359.1298515426406 L 777 359.1512806216964 L 778 359.1743424009244 L 779 359.19903600158256 L 780 359.22536048275026 L 781 359.253314841364 L 782 359.2828980122557 L 783 359.31410886819344 L 784 359.3469462199241 L 785 359.381408816219 L 786 359.41749534392125 L 787 359.45520442799614 L 788 359.49453463158324 L 789 359.5354844560513 L 790 359.5780523410553 L 791 359.6222366645959 L 792 359.66803574308136 L 793 359.71544783139154 L 794 359.76447112294437 L 795 359.81510374976494 L 796 359.86734378255636 L 797 359.9211892307735 L 798 359.97663804269877 L 799 360.0336881055202 L 800 360.09233724541207 L 801 360.1525832276178 L 802 360.2144237565349 L 803 360.27785647580265 L 804 360.3428789683916 L 805 360.40948875669596 L 806 360.477683302628 L 807 360.54746000771456 L 808 360.61881621319617 L 809 360.6917492001283 L 810 360.76625618948503 L 811 360.8423343422651 L 812 360.91998075959964 L 813 360.99919248286307 L 814 361.07996649378566 L 815 361.16229971456846 L 816 361.2461890080007 L 817 361.33163117757937 L 818 361.41862296763077 L 819 361.50716106343486 L 820 361.5972420913514 L 821 361.68886261894846 L 822 361.7820191551334 L 823 361.8767081502857 L 824 361.9729259963924 L 825 362.0706690271852 L 826 362.1699335182808 L 827 362.2707156873221 L 828 362.37301169412285 L 829 362.47681764081375 L 830 362.58212957199106 L 831 362.68894347486713 L 832 362.7972552794236 L 833 362.90706085856624 L 834 363.01835602828226 L 835 363.1311365477999 L 836 363.2453981197497 L 837 363.3611363903286 L 838 363.4783469494656 L 839 363.59702533098994 L 840 363.717167012801 L 841 363.83876741704114 L 842 363.96182191026946 L 843 364.0863258036391 L 844 364.21227435307514 L 845 364.339662759456 L 846 364.4684861687959 L 847 364.59873967242993 L 848 364.73041830720126 L 849 364.86351705564994 L 850 364.9980308462044 L 851 365.13395455337456 L 852 365.27128299794697 L 853 365.41001094718234 L 854 365.55013311501506 L 855 365.6916441622543 L 856 365.83453869678766 L 857 365.97881127378656 L 858 366.1244563959138 L 859 366.2714685135328 L 860 366.4198420249195 L 861 366.5695712764752 L 862 366.72065056294247 L 863 366.8730741276225 L 864 367.02683616259407 L 865 367.18193080893536 L 866 367.3383521569468 L 867 367.4960942463766 L 868 367.65515106664736 L 869 367.81551655708574 L 870 367.9771846071528 L 871 368.1401490566773 L 872 368.30440369608993 L 873 368.4699422666606 L 874 368.63675846073625 L 875 368.8048459219815 L 876 368.974198245621 L 877 369.144808978683 L 878 369.31667162024587 L 879 369.4897796216853 L 880 369.6641263869239 L 881 369.8397052726829 L 882 370.01650958873483 L 883 370.19453259815873 L 884 370.3737675175967 L 885 370.5542075175124 L 886 370.7358457224515 L 887 370.91867521130314 L 888 371.1026890175644 L 889 371.28788012960496 L 890 371.4742414909349 L 891 371.66176600047316 L 892 371.85044651281834 L 893 372.04027583852104 L 894 372.2312467443574 L 895 372.4233519536053 L 896 372.616584146321 L 897 372.8109359596186 L 898 373.0063999879503 L 899 373.2029687833888 L 900 373.40063485591065 L 901 373.59939067368214 L 902 373.79922866334607 L 903 374.00014121031035 L 904 374.2021206590381 L 905 374.4051593133395 L 906 374.60924943666475 L 907 374.81438325239935 L 908 375.0205529441598 L 909 375.22775065609204 L 910 375.4359684931703 L 911 375.64519852149834 L 912 375.85543276861137 L 913 376.06666322378004 L 914 376.27888183831584 L 915 376.49208052587744 L 916 376.706251162779 L 917 376.92138558829964 L 918 377.13747560499473 L 919 377.35451297900755 L 920 377.5724894403837 L 921 377.7913966833859 L 922 378.01122636681066 L 923 378.23197011430557 L 924 378.45361951468936 L 925 378.67616612227175 L 926 378.8996014571752 L 927 379.12391700565865 L 928 379.34910422044123 L 929 379.5751545210284 L 930 379.80205929403877 L 931 380.0298098935321 L 932 380.2583976413391 L 933 380.4878138273919 L 934 380.7180497100559 L 935 380.94909651646293 L 936 381.18094544284554 L 937 381.4135876548726 L 938 381.64701428798537 L 939 381.8812164477361 L 940 382.11618521012616 L 941 382.3519116219467 L 942 382.5883867011194 L 943 382.82560143703876 L 944 383.0635467909157 L 945 383.30221369612167 L 946 383.5415930585344 L 947 383.781675756884 L 948 384.02245264310113 L 949 384.263914542665 L 950 384.5060522549533 L 951 384.74885655359265 L 952 384.9923181868101 L 953 385.2364278777858 L 954 385.48117632500646 L 955 385.7265542026197 L 956 385.9725521607894 L 957 386.219160826052 L 958 386.46637080167375 L 959 386.7141726680086 L 960 386.96255698285717 L 961 387.2115142818266 L 962 387.46103507869117 L 963 387.7111098657537 L 964 387.96172911420786 L 965 388.21288327450134 L 966 388.4645627766995 L 967 388.71675803085026 L 968 388.96945942734936 L 969 389.22265733730666 L 970 389.47634211291285 L 971 389.73050408780733 L 972 389.98513357744616 L 973 390.24022087947156 L 974 390.49575627408115 L 975 390.7517300243985 L 976 391.00813237684434 L 977 391.2649535615078 L 978 391.5221837925191 L 979 391.77981326842206 L 980 392.03783217254784 L 981 392.2962306733888 L 982 392.55499892497335 L 983 392.81412706724086 L 984 393.07360522641756 L 985 393.3334235153926 L 986 393.59357203409513 L 987 393.85404086987097 L 988 394.1148200978608 L 989 394.3758997813781 L 990 394.6372699722879 L 991 394.8989207113859 L 992 395.1608420287776 L 993 395.4230239442586 L 994 395.68545646769456 L 995 395.94812959940225 L 996 396.2110333305301 L 997 396.47415764344 L 998 396.7374925120887 L 999 397.0010279024101 L 1000 397.26475377269736 L 1001 397.52866007398575 L 1002 397.79273675043515 L 1003 398.0569737397138 L 1004 398.3213609733812 L 1005 398.58588837727217 L 1006 398.85054587188034 L 1007 399.1153233727424 L 1008 399.3802107908224 L 1009 399.6451980328961 L 1010 399.9102750019356 L 1011 400.1754315974939 L 1012 400.4406577160903 L 1013 400.70594325159465 L 1014 400.9712780956129 L 1015 401.23665213787217 L 1016 401.502055266606 L 1017 401.76747736893964 L 1018 402.0329083312753 L 1019 402.2983380396775 L 1020 402.5637563802589 L 1021 402.8291532395649 L 1022 403.09451850495964 L 1023 403.3598420650111 L 1024 403.6251138098763 L 1025 403.89032363168684 L 1026 404.15546142493343 L 1027 404.42051708685176 L 1028 404.68548051780675 L 1029 404.9503416216778 L 1030 405.2150903062434 L 1031 405.47971648356554 L 1032 405.7442100703742 L 1033 406.00856098845173 L 1034 406.2727591650165 L 1035 406.53679453310707 L 1036 406.8006570319655 L 1037 407.06433660742096 L 1038 407.3278232122726 L 1039 407.59110680667254 L 1040 407.8541773585083 L 1041 408.1170248437853 L 1042 408.37963924700847 L 1043 408.6420105615641 L 1044 408.90412879010125 L 1045 409.1659839449123 L 1046 409.42756604831385 L 1047 409.6888651330268 L 1048 409.9498712425562 L 1049 410.2105744315704 L 1050 410.4709647662804 L 1051 410.73103232481805 L 1052 410.9907671976141 L 1053 411.25015948777605 L 1054 411.5091993114651 L 1055 411.7678767982727 L 1056 412.02618209159675 L 1057 412.2841053490172 L 1058 412.5416367426709 L 1059 412.79876645962634 L 1060 413.05548470225733 L 1061 413.3117816886166 L 1062 413.567647652808 L 1063 413.82307284535943 L 1064 414.0780475335935 L 1065 414.332562001999 L 1066 414.5866065526007 L 1067 414.8401715053292 L 1068 415.0932471983894 L 1069 415.34582398862904 L 1070 415.5978922519059 L 1071 415.8494423834545 L 1072 416.10046479825246 L 1073 416.35094993138506 L 1074 416.6008882384103 L 1075 416.85027019572215 L 1076 417.09908630091394 L 1077 417.3473270731398 L 1078 417.5949830534765 L 1079 417.84204480528336 L 1080 418.08850291456247 L 1081 418.3343479903166 L 1082 418.57957066490764 L 1083 418.82416159441334 L 1084 419.0681114589834 L 1085 419.3114109631944 L 1086 419.55405083640426 L 1087 419.7960218331054 L 1088 420.0373147332768 L 1089 420.2779203427357 L 1090 420.5178294934877 L 1091 420.7570330440761 L 1092 420.99552187993027 L 1093 421.233286913713 L 1094 421.4703190856667 L 1095 421.7066093639586 L 1096 421.9421487450248 L 1097 422.17692825391373 L 1098 422.41093894462756 L 1099 422.6441719004636 L 1100 422.87661823435377 L 1101 423.1082690892032 L 1102 423.3391156382279 L 1103 423.5691490852911 L 1104 423.7983606652381 L 1105 424.02674164423064 L 1106 424.25428332007954 L 1107 424.4809770225762 L 1108 424.70681411382316 L 1109 424.93178598856304 L 1110 425.1558840745065 L 1111 425.37909983265894 L 1112 425.6014247576459 L 1113 425.82285037803683 L 1114 426.0433682566685 L 1115 426.2629699909657 L 1116 426.4816472132622 L 1117 426.69939159111897 L 1118 426.91619482764196 L 1119 427.13204866179836 L 1120 427.346944868731 L 1121 427.5608752600721 L 1122 427.7738316842552 L 1123 427.98580602682557 L 1124 428.1967902107496 L 1125 428.4067761967226 L 1126 428.61575598347497 L 1127 428.8237216080771 L 1128 429.030665146243 L 1129 429.2365787126319 L 1130 429.44145446114896 L 1131 429.64528458524427 L 1132 429.84806131821006 L 1133 430.0497769334769 L 1134 430.25042374490795 L 1135 430.44999410709187 L 1136 430.6484804156343 L 1137 430.8458751074472 L 1138 431.04217066103763 L 1139 431.2373595967938 L 1140 431.4314344772703 L 1141 431.6243879074716 L 1142 431.8162125351336 L 1143 432.00690105100404 L 1144 432.1964461891207 L 1145 432.38484072708854 L 1146 432.5720774863548 L 1147 432.75814933248233 L 1148 432.943049175422 L 1149 433.12676996978206 L 1150 433.30930471509737 L 1151 433.49064645609553 L 1152 433.67078828296235 L 1153 433.84972333160493 L 1154 434.0274447839131 L 1155 434.2039458680196 L 1156 434.37921985855763 L 1157 434.5532600769175 L 1158 434.7260598915009 L 1159 434.8976127179737 L 1160 435.06791201951665 L 1161 435.2369513070748 L 1162 435.40472413960435 L 1163 435.5712241243185 L 1164 435.7364449169306 L 1165 435.90038022189634 L 1166 436.0630237926532 L 1167 436.2243694318588 L 1168 436.38441099162685 L 1169 436.5431423737616 L 1170 436.70055752998985 L 1171 436.8566504621919 L 1172 437.01141522262975 L 1173 437.1648459141737 L 1174 437.31693669052737 L 1175 437.46768175645013 L 1176 437.61707536797826 L 1177 437.7651118326433 L 1178 437.91178550968965 L 1179 438.05709081028886 L 1180 438.20102219775293 L 1181 438.34357418774533 L 1182 438.4847413484897 L 1183 438.62451830097706 L 1184 438.7628997191706 L 1185 438.8998803302088 L 1186 439.0354549146062 L 1187 439.1696183064524 L 1188 439.3023653936086 L 1189 439.4336911179031 L 1190 439.56359047532305 L 1191 439.692058516206 L 1192 439.8190903454278 L 1193 439.9446811225899 L 1194 440.06882606220296 L 1195 440.1915204338698 L 1196 440.3127595624653 L 1197 440.4325388283148 L 1198 440.5508536673699 L 1199 440.6676995713824 L 1200 440.78307208807644 L 1201 440.89696682131745 L 1202 441.00937943128037 L 1203 441.1203056346145 L 1204 441.2297412046072 L 1205 441.3376819713444 L 1206 441.4441238218698 L 1207 441.54906270034166 L 1208 441.6524946081871 L 1209 441.75441560425463 L 1210 441.8548218049644 L 1211 441.9537093844558 L 1212 442.0510745747338 L 1213 442.1469136658119 L 1214 442.2412230058542 L 1215 442.33399900131377 L 1216 442.4252381170703 L 1217 442.51493687656426 L 1218 442.6030918619298 L 1219 442.68969971412446 L 1220 442.77475713305785 L 1221 442.8582608777167 L 1222 442.94020776628884 L 1223 443.02059467628425 L 1224 443.09941854465404 L 1225 443.17667636790725 L 1226 443.25236520222506 L 1227 443.3264821635734 L 1228 443.3990244278123 L 1229 443.469989230804 L 1230 443.53937386851794 L 1231 443.60717569713387 L 1232 443.6733921331427 L 1233 443.73802065344483 L 1234 443.80105879544635 L 1235 443.8625041571528 L 1236 443.9223543972608 L 1237 443.98060723524713 L 1238 444.03726045145584 L 1239 444.0923118871825 L 1240 444.14575944475683 L 1241 444.19760108762233 L 1242 444.24783484041404 L 1243 444.29645878903375 L 1244 444.343471080723 L 1245 444.38886992413353 L 1246 444.43265358939567 L 1247 444.47482040818426 L 1248 444.51536877378214 L 1249 444.55429714114143 L 1250 444.5916040269424 L 1251 444.6272880096499 L 1252 444.66134772956764 L 1253 444.69378188888993 L 1254 444.7245892517513 L 1255 444.75376864427324 L 1256 444.7813189546092 L 1257 444.8072391329871 L 1258 444.8315281917488 L 1259 444.85418520538826 L 1260 444.8752093105866 L 1261 444.89459970624495 L 1262 444.912355653515 L 1263 444.92847647582727 L 1264 444.94296155891664 L 1265 444.95581035084615 L 1266 444.9670223620276 L 1267 444.9765971652404 L 1268 444.984534395648 L 1269 444.99083375081153 L 1270 444.9954949907014 L 1271 444.9985179377066 L 1272 444.99990247664124 L 1273 444.9996485547491 L 1274 444.9977561817056 L 1275 444.9942254296173 L 1276 444.9890564330195 L 1277 444.9822493888707 L 1278 444.9738045565453 L 1279 444.9637222578237 L 1280 444.95200287688016 L 1281 444.93864686026785 L 1282 444.92365471690215 L 1283 444.9070270180411 L 1284 444.8887643972636 L 1285 444.8688675504455 L 1286 444.84733723573265 L 1287 444.82417427351254 L 1288 444.7993795463826 L 1289 444.7729539991169 L 1290 444.7448986386298 L 1291 444.71521453393797 L 1292 444.6839028161193 L 1293 444.65096467827016 L 1294 444.61640137545965 L 1295 444.5802142246817 L 1296 444.5424046048054 L 1297 444.5029739565219 L 1298 444.4619237822898 L 1299 444.4192556462777 L 1300 444.374971174305 L 1301 444.3290720537795 L 1302 444.2815600336333 L 1303 444.2324369242562 L 1304 444.18170459742663 L 1305 444.1293649862404 L 1306 444.0754200850369 L 1307 444.0198719493234 L 1308 443.9627226956963 L 1309 443.90397450176096 L 1310 443.84362960604835 L 1311 443.78169030792986 L 1312 443.71815896752986 L 1313 443.65303800563544 L 1314 443.58632990360445 L 1315 443.5180372032709 L 1316 443.44816250684795 L 1317 443.37670847682887 L 1318 443.30367783588576 L 1319 443.22907336676536 L 1320 443.15289791218345 L 1321 443.0751543747165 L 1322 442.9958457166905 L 1323 442.91497496006906 L 1324 442.83254518633726 L 1325 442.7485595363851 L 1326 442.66302121038706 L 1327 442.5759334676808 L 1328 442.4872996266424 L 1329 442.39712306456056 L 1330 442.30540721750725 L 1331 442.21215558020725 L 1332 442.11737170590476 L 1333 442.021059206228 L 1334 441.9232217510519 L 1335 441.8238630683578 L 1336 441.72298694409176 L 1337 441.6205972220201 L 1338 441.51669780358304 L 1339 441.41129264774594 L 1340 441.3043857708487 L 1341 441.1959812464523 L 1342 441.08608320518397 L 1343 440.9746958345797 L 1344 440.86182337892444 L 1345 440.7474701390907 L 1346 440.6316404723745 L 1347 440.51433879232934 L 1348 440.3955695685982 L 1349 440.2753373267429 L 1350 440.15364664807186 L 1351 440.03050216946576 L 1352 439.90590858320036 L 1353 439.77987063676807 L 1354 439.6523931326969 L 1355 439.5234809283677 L 1356 439.3931389358286 L 1357 439.26137212160836 L 1358 439.12818550652673 L 1359 438.99358416550353 L 1360 438.85757322736487 L 1361 438.72015787464784 L 1362 438.5813433434034 L 1363 438.4411349229961 L 1364 438.2995379559036 L 1365 438.1565578375119 L 1366 438.0122000159108 L 1367 437.8664699916857 L 1368 437.71937331770806 L 1369 437.57091559892416 L 1370 437.4211024921411 L 1371 437.26993970581145 L 1372 437.11743299981595 L 1373 436.96358818524357 L 1374 436.80841112417056 L 1375 436.6519077294366 L 1376 436.49408396442 L 1377 436.3349458428101 L 1378 436.1744994283783 L 1379 436.0127508347469 L 1380 435.8497062251563 L 1381 435.6853718122301 L 1382 435.5197538577381 L 1383 435.3528586723583 L 1384 435.1846926154358 L 1385 435.0152620947409 L 1386 434.8445735662247 L 1387 434.6726335337734 L 1388 434.4994485489601 L 1389 434.3250252107955 L 1390 434.14937016547617 L 1391 433.9724901061315 L 1392 433.7943917725686 L 1393 433.6150819510155 L 1394 433.4345674738625 L 1395 433.252855219402 L 1396 433.06995211156624 L 1397 432.8858651196634 L 1398 432.70060125811244 L 1399 432.5141675861753 L 1400 432.32657120768835 L 1401 432.1378192707914 L 1402 431.9479189676556 L 1403 431.75687753420914 L 1404 431.5647022498616 L 1405 431.3714004372268 L 1406 431.1769794618434 L 1407 430.9814467318946 L 1408 430.7848096979256 L 1409 430.58707585255974 L 1410 430.3882527302133 L 1411 430.1883479068081 L 1412 429.98736899948267 L 1413 429.7853236663026 L 1414 429.58221960596813 L 1415 429.37806455752127 L 1416 429.1728663000505 L 1417 428.9666326523946 L 1418 428.75937147284475 L 1419 428.551090658845 L 1420 428.3417981466914 L 1421 428.1315019112295 L 1422 427.92020996555055 L 1423 427.7079303606863 L 1424 427.49467118530197 L 1425 427.2804405653881 L 1426 427.06524666395126 L 1427 426.84909768070224 L 1428 426.63200185174475 L 1429 426.4139674492605 L 1430 426.19500278119443 L 1431 425.97511619093837 L 1432 425.75431605701283 L 1433 425.53261079274785 L 1434 425.31000884596233 L 1435 425.0865186986422 L 1436 424.8621488666173 L 1437 424.63690789923686 L 1438 424.4108043790436 L 1439 424.18384692144684 L 1440 423.95604417439415 L 1441 423.727404818042 L 1442 423.49793756442466 L 1443 423.26765115712266 L 1444 423.03655437092914 L 1445 422.8046560115162 L 1446 422.57196491509865 L 1447 422.3384899480976 L 1448 422.1042400068027 L 1449 421.86922401703316 L 1450 421.6334509337975 L 1451 421.3969297409524 L 1452 421.1596694508602 L 1453 420.921679104046 L 1454 420.68296776885273 L 1455 420.44354454109566 L 1456 420.2034185437159 L 1457 419.9625989264329 L 1458 419.7210948653955 L 1459 419.4789155628327 L 1460 419.23607024670247 L 1461 418.99256817034063 L 1462 418.74841861210825 L 1463 418.50363087503763 L 1464 418.2582142864782 L 1465 418.01217819774115 L 1466 417.765531983743 L 1467 417.51828504264824 L 1468 417.2704467955115 L 1469 417.0220266859182 L 1470 416.7730341796253 L 1471 416.5234787642 L 1472 416.2733699486586 L 1473 416.02271726310397 L 1474 415.77153025836265 L 1475 415.51981850562066 L 1476 415.267591596059 L 1477 415.01485914048806 L 1478 414.7616307689815 L 1479 414.5079161305093 L 1480 414.25372489257006 L 1481 413.99906674082257 L 1482 413.7439513787169 L 1483 413.4883885271245 L 1484 413.23238792396813 L 1485 412.97595932385025 L 1486 412.7191124976817 L 1487 412.46185723230957 L 1488 412.2042033301438 L 1489 411.94616060878394 L 1490 411.6877389006451 L 1491 411.42894805258334 L 1492 411.1697979255202 L 1493 410.9102983940671 L 1494 410.6504593461493 L 1495 410.39029068262874 L 1496 410.1298023169271 L 1497 409.8690041746479 L 1498 409.60790619319823 L 1499 409.3465183214104 L 1500 409.0848505191625 L 1501 408.82291275699913 L 1502 408.56071501575127 L 1503 408.2982672861562 L 1504 408.0355795684768 L 1505 407.77266187212024 L 1506 407.5095242152568 L 1507 407.24617662443814 L 1508 406.98262913421513 L 1509 406.71889178675576 L 1510 406.45497463146216 L 1511 406.19088772458775 L 1512 405.9266411288542 L 1513 405.66224491306815 L 1514 405.39770915173705 L 1515 405.1330439246857 L 1516 404.86825931667187 L 1517 404.6033654170025 L 1518 404.33837231914885 L 1519 404.07329012036183 L 1520 403.80812892128756 L 1521 403.5428988255825 L 1522 403.2776099395282 L 1523 403.0122723716463 L 1524 402.74689623231353 L 1525 402.48149163337615 L 1526 402.2160686877652 L 1527 401.9506375091104 L 1528 401.68520821135536 L 1529 401.419790908372 L 1530 401.15439571357535 L 1531 400.88903273953775 L 1532 400.62371209760397 L 1533 400.3584438975057 L 1534 400.0932382469765 L 1535 399.82810525136654 L 1536 399.5630550132573 L 1537 399.29809763207726 L 1538 399.0332432037165 L 1539 398.7685018201422" stroke-linecap="round" stroke-linejoin="round" stroke-miterlimit="10" stroke-width="16"/></g></svg>